<?xml version='1.0' encoding='utf-8'?>
<svg width="479.257520433mm" height="513.0000000001mm" viewBox="-39.6752697042 -42.9880089281 79.9271616393 85.5544924656" version="1.1" xmlns="http://www.w3.org/2000/svg">
  <g transform="scale(1,-1)" stroke-linecap="round">
    <g fill="none" stroke="rgb(64,192,64)" stroke-width="0.16677288979645893" id="Visible">
      <path d="M 33.120043104,-0.3970412913 A 1.6,0.932249280443625 -60.183910185104615 0,0 32.3405771889,0.9630970998" />
      <path d="M 32.0251741019,-1.4358158312 A 1.6,0.932249280443625 -60.183910185104615 0,0 31.2296258978,1.2671310514" />
      <path d="M 31.2296258978,1.2671310514 A 1.6,0.932249280443625 -60.183910185104615 0,0 32.0251741019,1.1936751858" />
      <path d="M -24.5133323472,32.2657423406 A 1.6,0.932249280443625 -60.183910185104615 0,0 -25.2927982623,33.6258807317" />
      <path d="M -25.6082013494,31.2269678007 A 1.6,0.932249280443625 -60.183910185104615 0,0 -26.4037495534,33.9299146833" />
      <path d="M -26.4037495534,33.9299146833 A 1.6,0.932249280443625 -60.183910185104615 0,0 -25.6082013494,33.8564588177" />
      <path d="M 28.6174356469,-37.5012727203 A 1.6,0.932249280443625 -60.183910185104615 0,0 27.8379697318,-36.1411343292" />
      <path d="M 27.5225666447,-38.5400472602 A 1.6,0.932249280443625 -60.183910185104615 0,0 26.7270184407,-35.8371003776" />
      <path d="M 26.7270184407,-35.8371003776 A 1.6,0.932249280443625 -60.183910185104615 0,0 27.5225666447,-35.9105562432" />
      <path d="M -24.5133323472,-7.3902690597 A 1.6,0.932249280443625 -60.183910185104615 0,0 -25.2927982623,-6.0301306685" />
      <path d="M -25.6082013494,-8.4290435995 A 1.6,0.932249280443625 -60.183910185104615 0,0 -26.4037495534,-5.7260967169" />
      <path d="M -26.4037495534,-5.7260967169 A 1.6,0.932249280443625 -60.183910185104615 0,0 -25.6082013494,-5.7995525825" />
      <line x1="-35.0041871573" y1="41.5613401888" x2="35.2364891739" y2="1.7535726374" />
      <line x1="35.2364891739" y1="1.1447904463" x2="35.2364891739" y2="1.7535726374" />
      <line x1="37.0375321568" y1="-1.5523235233" x2="35.2364891739" y2="1.1447904463" />
      <line x1="37.0375321568" y1="-1.5523235233" x2="37.0375321568" y2="-29.3081612027" />
      <line x1="35.2364891739" y1="-31.6409632786" x2="37.0375321568" y2="-29.3081612027" />
      <line x1="35.2364891739" y1="-41.2550398095" x2="35.2364891739" y2="-31.6409632786" />
      <line x1="34.5274171334" y1="-41.6749006387" x2="35.2364891739" y2="-41.2550398095" />
      <line x1="35.6272600676" y1="-2.3605199772" x2="35.6272600676" y2="-30.1163576565" />
      <line x1="35.6272600676" y1="-30.1163576565" x2="37.0375321568" y2="-29.3081612027" />
      <line x1="35.6272600676" y1="-2.3605199772" x2="37.0375321568" y2="-1.5523235233" />
      <line x1="33.1171450442" y1="-42.4830970926" x2="34.5274171334" y2="-41.6749006387" />
      <line x1="33.1171450442" y1="-42.4830970926" x2="-36.4144592465" y2="-3.0771846548" />
      <line x1="-36.4144592465" y1="-3.0771846548" x2="-36.4144592465" y2="40.753143735" />
      <line x1="-35.0041871573" y1="41.5613401888" x2="-36.4144592465" y2="40.753143735" />
      <line x1="-36.4144592465" y1="40.753143735" x2="33.8262170847" y2="0.9453761836" />
      <line x1="33.8262170847" y1="0.9453761836" x2="35.2364891739" y2="1.7535726374" />
      <line x1="33.8262170847" y1="-32.4491597324" x2="35.6272600676" y2="-30.1163576565" />
      <line x1="35.6272600676" y1="-2.3605199772" x2="33.8262170847" y2="0.3365939925" />
      <line x1="33.8262170847" y1="0.3365939925" x2="33.8262170847" y2="0.9453761836" />
      <line x1="33.1171450442" y1="-42.4830970926" x2="33.8262170847" y2="-42.0632362634" />
      <line x1="33.8262170847" y1="-42.0632362634" x2="33.8262170847" y2="-32.4491597324" />
      <path d="M 32.0251741019,1.1936751858 A 1.6,0.932249280443625 -60.183910185104615 0,0 32.8207223059,-1.5092716968" />
      <path d="M 32.8207223059,-1.5092716968 A 1.6,0.932249280443625 -60.183910185104615 0,0 32.0251741019,-1.4358158312" />
      <path d="M -25.6082013494,33.8564588177 A 1.6,0.932249280443625 -60.183910185104615 0,0 -24.8126531453,31.1535119351" />
      <path d="M -24.8126531453,31.1535119351 A 1.6,0.932249280443625 -60.183910185104615 0,0 -25.6082013494,31.2269678007" />
      <path d="M 27.5225666447,-35.9105562432 A 1.6,0.932249280443625 -60.183910185104615 0,0 28.3181148488,-38.6135031258" />
      <path d="M 28.3181148488,-38.6135031258 A 1.6,0.932249280443625 -60.183910185104615 0,0 27.5225666447,-38.5400472602" />
      <path d="M -25.6082013494,-5.7995525825 A 1.6,0.932249280443625 -60.183910185104615 0,0 -24.8126531453,-8.5024994651" />
      <path d="M -24.8126531453,-8.5024994651 A 1.6,0.932249280443625 -60.183910185104615 0,0 -25.6082013494,-8.4290435995" />
      <line x1="33.8262170847" y1="0.3365939925" x2="35.2364891739" y2="1.1447904463" />
      <line x1="33.8262170847" y1="-32.4491597324" x2="35.2364891739" y2="-31.6409632786" />
      <line x1="33.8262170847" y1="-42.0632362634" x2="35.2364891739" y2="-41.2550398095" />
      <line x1="36.0558876554" y1="2.0491332198" x2="35.2364891739" y2="1.5795536599" />
      <line x1="32.8919643788" y1="0.2359571724" x2="32.6891984898" y2="0.1197564239" />
      <line x1="40.1685054902" y1="-0.2816264389" x2="37.0375321568" y2="-2.0759195861" />
      <line x1="36.0558876554" y1="2.0491332198" x2="40.1685054902" y2="-0.2816264389" />
      <line x1="40.1685054902" y1="-37.669701837" x2="35.2364891739" y2="-40.4961337914" />
      <line x1="40.1685054902" y1="-0.2816264389" x2="40.1685054902" y2="-37.669701837" />
      <line x1="-6.502616215" y1="31.0659041562" x2="-11.4660376943" y2="28.2214745817" />
      <line x1="4.1334643924" y1="25.0380774525" x2="-0.8299570869" y2="22.193647878" />
      <line x1="-6.502616215" y1="31.0659041562" x2="4.1334643924" y2="25.0380774525" />
      <line x1="4.1334643924" y1="25.0380774525" x2="4.1334643924" y2="22.6134505284" />
      <line x1="6.2606805138" y1="23.8325121117" x2="1.2972590346" y2="20.9880825372" />
      <line x1="20.4421213237" y1="15.7954098401" x2="15.4786998444" y2="12.9509802656" />
      <line x1="6.2606805138" y1="23.8325121117" x2="20.4421213237" y2="15.7954098401" />
      <line x1="20.4421213237" y1="15.7954098401" x2="20.4421213237" y2="13.6940665059" />
      <line x1="22.285708629" y1="14.7505865448" x2="17.3222871497" y2="11.9061569703" />
      <line x1="36.4671494388" y1="6.7134842731" x2="31.5037279596" y2="3.8690546986" />
      <line x1="22.285708629" y1="14.7505865448" x2="36.4671494388" y2="6.7134842731" />
      <line x1="36.4671494388" y1="4.0839932561" x2="33.810679032" y2="2.5616274807" />
      <line x1="36.4671494388" y1="6.7134842731" x2="36.4671494388" y2="4.0839932561" />
      <line x1="-39.5918832593" y1="17.7842610094" x2="-36.4144592465" y2="15.9835073276" />
      <line x1="-39.5918832593" y1="7.9236696956" x2="-39.5918832593" y2="17.7842610094" />
      <line x1="-36.4144592465" y1="6.1229160138" x2="-39.5918832593" y2="7.9236696956" />
      <line x1="-36.4144592465" y1="19.6051740369" x2="-39.5918832593" y2="17.7842610094" />
      <line x1="-36.4144592465" y1="32.2452658359" x2="-36.4932384423" y2="32.2899126713" />
      <line x1="-36.4932384423" y1="38.8636402138" x2="-36.4144592465" y2="38.8189933784" />
      <line x1="-36.4932384423" y1="32.2899126713" x2="-36.4932384423" y2="38.8636402138" />
      <line x1="-29.4418779963" y1="42.9046224832" x2="-33.3860637167" y2="40.6442948932" />
      <line x1="-36.4144592465" y1="38.9087868683" x2="-36.4932384423" y2="38.8636402138" />
      <line x1="-21.6420855509" y1="38.4842162338" x2="-25.5862712713" y2="36.2238886438" />
      <line x1="-29.4418779963" y1="42.9046224832" x2="-21.6420855509" y2="38.4842162338" />
      <line x1="-21.6420855509" y1="38.4842162338" x2="-21.6420855509" y2="33.9885851624" />
    </g>
  </g>
</svg>